<svg width="33" height="33" viewBox="0 0 33 33" fill="none" xmlns="http://www.w3.org/2000/svg">
<path d="M23.787 14.5126C23.2065 14.5126 22.7475 14.0401 22.7475 13.4731C22.7475 12.9736 22.248 11.9341 21.411 11.0296C20.5875 10.1521 19.683 9.63906 18.927 9.63906C18.3465 9.63906 17.8875 9.16656 17.8875 8.59956C17.8875 8.03256 18.36 7.56006 18.927 7.56006C20.277 7.56006 21.6945 8.28906 22.9365 9.59856C24.0975 10.8271 24.84 12.3526 24.84 13.4596C24.84 14.0401 24.3675 14.5126 23.787 14.5126Z" fill="#D7F781"/>
<path d="M28.6604 14.5127C28.0799 14.5127 27.6209 14.0402 27.6209 13.4732C27.6209 8.6807 23.7194 4.7927 18.9404 4.7927C18.3599 4.7927 17.9009 4.3202 17.9009 3.7532C17.9009 3.1862 18.3599 2.7002 18.9269 2.7002C24.8669 2.7002 29.6999 7.5332 29.6999 13.4732C29.6999 14.0402 29.2274 14.5127 28.6604 14.5127Z" fill="#D7F781"/>
<path d="M14.9175 20.1827L12.42 22.6802C11.8935 23.2067 11.0565 23.2067 10.5165 22.6937C10.368 22.5452 10.2195 22.4102 10.071 22.2617C8.68045 20.8577 7.42495 19.3862 6.30445 17.8472C5.19745 16.3082 4.30645 14.7692 3.65845 13.2437C3.02395 11.7047 2.69995 10.2332 2.69995 8.8292C2.69995 7.91119 2.86195 7.0337 3.18595 6.2237C3.50995 5.4002 4.02295 4.6442 4.73845 3.9692C5.60245 3.1187 6.54745 2.7002 7.54645 2.7002C7.92445 2.7002 8.30245 2.7812 8.63995 2.9432C8.99095 3.1052 9.30145 3.3482 9.54445 3.6992L12.6765 8.1137C12.9195 8.4512 13.095 8.76169 13.2165 9.05869C13.338 9.3422 13.4055 9.6257 13.4055 9.88219C13.4055 10.2062 13.311 10.5302 13.122 10.8407C12.9465 11.1512 12.69 11.4752 12.366 11.7992L11.34 12.8657C11.1915 13.0142 11.124 13.1897 11.124 13.4057C11.124 13.5137 11.1375 13.6082 11.1645 13.7162C11.205 13.8242 11.2455 13.9052 11.2725 13.9862C11.5155 14.4317 11.934 15.0122 12.528 15.7142C13.1355 16.4162 13.7835 17.1317 14.4855 17.8472C14.6205 17.9822 14.769 18.1172 14.904 18.2522C15.444 18.7787 15.4575 19.6427 14.9175 20.1827Z" fill="#D7F781"/>
<path d="M29.6595 24.7456C29.6595 25.1236 29.592 25.5151 29.457 25.8931C29.4165 26.0011 29.376 26.1091 29.322 26.2171C29.0925 26.7031 28.7955 27.1621 28.404 27.5941C27.7425 28.3231 27.0135 28.8496 26.19 29.1871C26.1765 29.1871 26.163 29.2006 26.1495 29.2006C25.353 29.5246 24.489 29.7001 23.5575 29.7001C22.1805 29.7001 20.709 29.3761 19.1565 28.7146C17.604 28.0531 16.0515 27.1621 14.5125 26.0416C13.986 25.6501 13.4595 25.2586 12.96 24.8401L17.3745 20.4256C17.7525 20.7091 18.09 20.9251 18.3735 21.0736C18.441 21.1006 18.522 21.1411 18.6165 21.1816C18.7245 21.2221 18.8325 21.2356 18.954 21.2356C19.1835 21.2356 19.359 21.1546 19.5075 21.0061L20.5335 19.9936C20.871 19.6561 21.195 19.3996 21.5055 19.2376C21.816 19.0486 22.1265 18.9541 22.464 18.9541C22.7205 18.9541 22.9905 19.0081 23.2875 19.1296C23.5845 19.2511 23.895 19.4266 24.2325 19.6561L28.701 22.8286C29.052 23.0716 29.295 23.3551 29.4435 23.6926C29.5785 24.0301 29.6595 24.3676 29.6595 24.7456Z" fill="#D7F781"/>
</svg>
