<svg width="33" height="33" viewBox="0 0 33 33" fill="none" xmlns="http://www.w3.org/2000/svg">
<path d="M26.325 10.7998C28.1889 10.7998 29.7 9.28877 29.7 7.42481C29.7 5.56084 28.1889 4.0498 26.325 4.0498C24.461 4.0498 22.95 5.56084 22.95 7.42481C22.95 9.28877 24.461 10.7998 26.325 10.7998Z" fill="#D7F781"/>
<path d="M26.325 10.7998C28.1889 10.7998 29.7 9.28877 29.7 7.42481C29.7 5.56084 28.1889 4.0498 26.325 4.0498C24.461 4.0498 22.95 5.56084 22.95 7.42481C22.95 9.28877 24.461 10.7998 26.325 10.7998Z" fill="#D7F781"/>
<path d="M27.972 12.5686C27.027 12.8656 25.9875 12.9196 24.9075 12.6496C23.0985 12.1771 21.627 10.7326 21.1275 8.9236C20.8845 8.0461 20.871 7.1821 21.0195 6.3991C21.195 5.5351 20.5875 4.7251 19.7235 4.7251H9.44995C5.39995 4.7251 2.69995 6.7501 2.69995 11.4751V20.9251C2.69995 25.6501 5.39995 27.6751 9.44995 27.6751H22.95C27 27.6751 29.7 25.6501 29.7 20.9251V13.8511C29.7 12.9601 28.836 12.2851 27.972 12.5686ZM20.952 15.0526L19.359 16.3216C18.468 17.0371 17.334 17.3881 16.2 17.3881C15.066 17.3881 13.9185 17.0371 13.041 16.3216L8.81545 12.9466C8.38345 12.5956 8.31595 11.9476 8.65345 11.5156C9.00445 11.0836 9.63895 11.0026 10.071 11.3536L14.2965 14.7286C15.3225 15.5521 17.064 15.5521 18.09 14.7286L19.683 13.4596C20.115 13.1086 20.763 13.1761 21.1005 13.6216C21.4515 14.0536 21.384 14.7016 20.952 15.0526Z" fill="#D7F781"/>
</svg>
