<svg width="119" height="39" viewBox="0 0 119 39" fill="none" xmlns="http://www.w3.org/2000/svg">
<path d="M14.5127 0.00317383H15.5606C19.1986 0.0808507 22.7772 1.51787 25.3475 4.06179C24.3984 5.01333 23.4296 5.92604 22.5004 6.87758C21.0571 5.59591 19.3172 4.60553 17.4191 4.25598C14.6116 3.67341 11.5866 4.19773 9.2338 5.77068C6.66352 7.42132 4.92364 10.2177 4.54799 13.2082C4.13279 16.16 4.98296 19.267 6.94032 21.5585C8.8186 23.7917 11.6854 25.1899 14.6511 25.287C17.4191 25.4424 20.3058 24.6073 22.3224 22.7042C23.9041 21.3643 24.6357 19.3253 24.8729 17.3445C21.5909 17.3445 18.3088 17.364 15.0268 17.3445V13.3442H28.847C29.5587 17.6358 28.5306 22.4712 25.209 25.5395C22.9947 27.7144 19.9301 28.9961 16.8062 29.2485C13.7812 29.5398 10.6573 28.9767 7.96843 27.5396C4.7457 25.8502 2.17542 22.9955 0.910058 19.636C-0.276224 16.5484 -0.295995 13.0529 0.811201 9.94582C1.81954 7.11061 3.75713 4.60553 6.24832 2.8578C8.64066 1.12949 11.547 0.177947 14.5127 0.00317383Z" fill="#61B989"/>
<path d="M93.7959 1.01318H98.027V28.7438C96.6232 28.7438 95.1997 28.7633 93.7959 28.7244C93.8157 19.5003 93.7959 10.2567 93.7959 1.01318Z" fill="#61B989"/>
<path d="M38.2581 10.6256C40.8679 10.1402 43.6952 10.6839 45.8503 12.218C47.8076 13.5774 49.1718 15.7135 49.587 18.0438C50.1209 20.743 49.4486 23.6948 47.6692 25.8309C45.7514 28.2194 42.6078 29.5011 39.5432 29.3069C36.7357 29.1516 34.0072 27.7728 32.3464 25.5202C30.4681 23.0345 30.0134 19.6167 31.0415 16.7038C32.0696 13.5774 34.976 11.1888 38.2581 10.6256ZM38.8512 14.3153C37.7835 14.5872 36.795 15.1891 36.0832 16.0436C34.1654 18.2962 34.284 21.9665 36.3995 24.0637C37.6056 25.2677 39.4246 25.8309 41.1051 25.5008C42.6671 25.2289 44.0313 24.1997 44.7826 22.8403C46.0875 20.5294 45.7119 17.3447 43.7149 15.5387C42.4298 14.3735 40.5515 13.8881 38.8512 14.3153Z" fill="#61B989"/>
<path d="M59.2157 10.6256C62.2012 10.0624 65.4635 10.878 67.6976 12.9365C71.3355 16.1407 71.731 22.1412 68.6269 25.8308C66.7486 28.1612 63.7038 29.4428 60.6986 29.3069C57.8317 29.2292 55.0044 27.831 53.3041 25.5201C51.3863 22.9762 50.9711 19.4808 52.0585 16.5096C53.1459 13.4802 55.993 11.1693 59.2157 10.6256ZM59.8088 14.3152C58.7412 14.5871 57.7526 15.1891 57.0409 16.0241C55.1428 18.2379 55.2219 21.8499 57.2583 23.9666C58.4644 25.2289 60.3427 25.8503 62.0826 25.5007C63.6247 25.2094 65.0087 24.1996 65.76 22.8403C67.0452 20.51 66.6695 17.3252 64.6528 15.5192C63.3677 14.3541 61.4894 13.888 59.8088 14.3152Z" fill="#61B989"/>
<path d="M76.9901 11.752C79.2638 10.3538 82.2888 9.96546 84.7405 11.1695C85.5116 11.4996 86.1443 12.0627 86.7572 12.6259C86.7769 12.1016 86.7572 11.5578 86.7769 11.0141C88.1016 11.0335 89.4263 11.0141 90.7708 11.0335V28.1613C90.751 30.744 90.0788 33.4821 88.1807 35.3658C86.1047 37.4437 82.9215 38.0845 80.0547 37.6573C76.9901 37.2106 74.321 35.0163 73.1347 32.2393C74.321 31.6762 75.5666 31.2295 76.7924 30.7052C77.4844 32.2976 78.8882 33.6569 80.6478 33.9676C82.4075 34.2783 84.4439 33.8511 85.5907 32.4141C86.8165 30.9382 86.8165 28.9186 86.7572 27.1126C85.8477 27.9865 84.7998 28.7633 83.5344 29.0546C80.7862 29.8119 77.7612 28.8798 75.6457 27.0544C73.5104 25.229 72.245 22.4132 72.3636 19.6168C72.4229 16.4515 74.2419 13.4027 76.9901 11.752ZM81.0828 14.2377C79.8767 14.4319 78.7498 15.0921 77.9787 16.0048C76.1202 18.1798 76.1202 21.6558 77.9985 23.7919C79.0661 25.0542 80.7862 25.7533 82.447 25.5785C84.009 25.4232 85.4523 24.4522 86.2233 23.1123C87.5283 20.8402 87.3108 17.7526 85.5511 15.7718C84.4637 14.5484 82.7238 13.9464 81.0828 14.2377Z" fill="#61B989"/>
<path d="M103.108 12.7423C105.481 10.5674 109.138 9.82944 112.183 10.9752C115.07 12.0432 116.909 14.7425 117.838 17.5194C113.547 19.2672 109.277 20.9955 104.986 22.7432C105.58 23.8501 106.489 24.8599 107.715 25.2677C109.435 25.8697 111.491 25.6561 112.934 24.5298C113.508 24.1026 113.963 23.5394 114.398 22.9957C115.485 23.7142 116.572 24.4133 117.66 25.1318C116.118 27.4038 113.528 28.9962 110.74 29.2487C107.656 29.6176 104.373 28.4525 102.377 26.0833C99.0945 22.3548 99.4109 16.1018 103.108 12.7423ZM105.224 16.3349C104.551 17.2864 104.275 18.4516 104.294 19.5973C107.161 18.4322 110.028 17.267 112.895 16.0824C112.42 14.995 111.274 14.3347 110.107 14.1599C108.229 13.8298 106.272 14.8202 105.224 16.3349Z" fill="#61B989"/>
</svg>
