<svg width="50" height="50" viewBox="0 0 50 50" fill="none" xmlns="http://www.w3.org/2000/svg">
<path d="M24.7313 0C18.1738 0.00537505 11.8864 2.61878 7.24956 7.26644C2.6127 11.9141 0.00536256 18.2161 0 24.7889H10.1247C10.1247 22.8663 10.5025 20.9625 11.2366 19.1862C11.9706 17.4099 13.0466 15.796 14.4029 14.4364C15.7593 13.0769 17.3695 11.9985 19.1416 11.2628C20.9138 10.527 22.8132 10.1483 24.7313 10.1483C26.6495 10.1483 28.5489 10.527 30.321 11.2628C32.0932 11.9985 33.7034 13.0769 35.0598 14.4364C36.4161 15.796 37.492 17.4099 38.2261 19.1862C38.9601 20.9625 39.3379 22.8663 39.3379 24.7889H49.4627C49.4555 18.2167 46.8476 11.9157 42.2111 7.26842C37.5747 2.62115 31.2883 0.0071632 24.7313 0Z" fill="#1C4B24"/>
<path d="M0.000244141 24.7549C6.55604 24.762 12.8414 27.3751 17.4777 32.0209C22.1139 36.6667 24.7226 42.966 24.7316 49.537H14.6068C14.6015 45.6564 13.0606 41.9363 10.3223 39.1929C7.58404 36.4495 3.87189 34.9068 0.000244141 34.9032V24.7549Z" fill="#1C4B24"/>
<path d="M49.463 24.7549V34.9032C45.5914 34.9068 41.8792 36.4495 39.1409 39.1929C36.4026 41.9363 34.8618 45.6564 34.8564 49.537H24.7317C24.7388 42.9654 27.347 36.6651 31.9836 32.0189C36.6203 27.3727 42.9067 24.7603 49.463 24.7549Z" fill="#1C4B24"/>
</svg>
