<svg width="149" height="150" viewBox="0 0 149 150" fill="none" xmlns="http://www.w3.org/2000/svg">
<path d="M74.5029 0.5C94.1232 0.521434 112.935 8.34276 126.809 22.249C140.565 36.0374 148.352 54.6915 148.504 74.1777H119.001C118.937 68.4904 117.792 62.8661 115.619 57.6084C113.383 52.1967 110.105 47.2788 105.973 43.1367C101.84 38.9947 96.9336 35.7095 91.5342 33.4678C86.1349 31.2262 80.3481 30.0723 74.5039 30.0723C68.6596 30.0723 62.8721 31.2261 57.4727 33.4678C52.0734 35.7095 47.1675 38.9948 43.0352 43.1367C38.9027 47.2788 35.6251 52.1967 33.3887 57.6084C31.216 62.8661 30.0704 68.4903 30.0068 74.1777H0.503906C0.650569 54.6898 8.43584 36.0327 22.1934 22.2432C36.0681 8.33613 54.8816 0.516414 74.5029 0.5Z" stroke="#F9F8F4"/>
<path d="M0.501221 75.0779C19.937 75.2306 38.5428 83.0337 52.2981 96.8171C66.0538 110.601 73.8439 129.25 74.0012 148.732H44.4973C44.3516 137.09 39.6757 125.957 31.4504 117.717C23.2255 109.476 12.1167 104.794 0.501221 104.653V75.0779Z" stroke="#F9F8F4"/>
<path d="M148.509 104.653C136.894 104.794 125.785 109.476 117.56 117.717C109.335 125.957 104.659 137.09 104.513 148.732H75.009C75.161 129.248 82.9486 110.596 96.7053 96.8113C110.462 83.0265 129.071 75.2252 148.509 75.0779V104.653Z" stroke="#F9F8F4"/>
</svg>
