<svg width="125" height="64" viewBox="0 0 125 64" fill="none" xmlns="http://www.w3.org/2000/svg">
<path d="M15.6045 63C6.98669 63 0 56.0133 0 47.3955V31.792H15.6045C24.222 31.7922 31.2078 38.778 31.208 47.3955C31.208 56.0132 24.2221 62.9998 15.6045 63ZM14.9609 55.166C19.5111 55.166 23.2002 51.477 23.2002 46.9268C23.2001 42.3766 19.5111 38.6875 14.9609 38.6875C10.411 38.6878 6.72271 42.3768 6.72266 46.9268C6.72266 51.4768 10.4109 55.1658 14.9609 55.166Z" fill="#61B989"/>
<path d="M31.208 0.697266L31.208 31.9051L0.000171118 31.9051C0.000170365 14.6695 13.9724 0.697266 31.208 0.697266Z" fill="#D7F781"/>
<path d="M62.3806 0.855952C54.1396 0.862708 46.2381 4.14703 40.4109 9.98785C34.5836 15.8287 31.3069 23.7486 31.3002 32.0087L44.0241 32.0087C44.0241 29.5925 44.4989 27.2 45.4214 24.9677C46.3439 22.7354 47.6961 20.7071 49.4006 18.9985C51.1052 17.29 53.1288 15.9347 55.3559 15.0101C57.583 14.0855 59.97 13.6095 62.3806 13.6095C64.7912 13.6095 67.1782 14.0855 69.4053 15.0101C71.6324 15.9347 73.656 17.29 75.3605 18.9985C77.0651 20.7071 78.4172 22.7354 79.3397 24.9677C80.2622 27.2 80.737 29.5925 80.737 32.0087L93.461 32.0087C93.452 23.7493 90.1746 15.8307 84.3478 9.99033C78.5211 4.15 70.6208 0.864952 62.3806 0.855952Z" fill="#1C4B24"/>
<path d="M31.3 31.7114C39.5389 31.7204 47.4378 35.0043 53.2643 40.8428C59.0908 46.6813 62.3692 54.5977 62.3805 62.8557L49.6565 62.8557C49.6498 57.9788 47.7133 53.3037 44.2721 49.856C40.8308 46.4083 36.1656 44.4695 31.3001 44.465L31.3 31.7114Z" fill="#1C4B24"/>
<path d="M93.4609 31.856L93.4609 44.6095C88.5953 44.614 83.9302 46.5528 80.4889 50.0005C77.0476 53.4482 75.1112 58.1233 75.1045 63.0002L62.3805 63.0002C62.3895 54.7416 65.6672 46.8238 71.4942 40.9848C77.3212 35.1459 85.2214 31.8627 93.4609 31.856Z" fill="#1C4B24"/>
<path d="M93.5 63.3027L93.5 32.0949L124.708 32.0949C124.708 49.3305 110.736 63.3027 93.5 63.3027Z" fill="#D7F781"/>
<path d="M109.104 1C117.721 0.999999 124.708 7.98669 124.708 16.6045V32.208H109.104C100.486 32.2078 93.5002 25.222 93.5 16.6045C93.5 7.98684 100.486 1.00024 109.104 1ZM109.747 8.83398C105.197 8.83398 101.508 12.523 101.508 17.0732C101.508 21.6234 105.197 25.3125 109.747 25.3125C114.297 25.3122 117.985 21.6232 117.985 17.0732C117.985 12.5232 114.297 8.83424 109.747 8.83398Z" fill="#61B989"/>
</svg>
