<svg width="133" height="30" viewBox="0 0 133 30" fill="none" xmlns="http://www.w3.org/2000/svg">
<path d="M129.795 0L122.545 15.346L119.819 9.53133H116.87L121.353 19.0427H123.737L132.723 0H129.795Z" fill="#61B989"/>
<path d="M98.6944 28.4941H104.531V17.9237C104.531 15.5059 105.944 13.8074 108.045 13.8074C110.064 13.8074 111.114 15.2062 111.114 17.2243V28.4941H116.951V16.1253C116.951 11.9291 114.406 8.97183 110.286 8.97183C107.661 8.97183 105.823 10.0908 104.45 12.129H104.329V9.53132H98.6742L98.6944 28.4941ZM87.2234 9.0118C81.1245 9.0118 77.045 13.3479 77.045 19.0627C77.045 24.7375 81.1245 29.1135 87.2234 29.1135C93.3224 29.1135 97.4019 24.7375 97.4019 19.0627C97.4221 13.3479 93.3224 9.0118 87.2234 9.0118ZM87.1831 24.8374C84.4163 24.8374 82.9421 22.5395 82.9421 19.0627C82.9421 15.5459 84.3961 13.2879 87.1831 13.2879C89.9498 13.2879 91.4847 15.5459 91.4847 19.0627C91.5049 22.5395 89.97 24.8374 87.1831 24.8374ZM60.4041 28.4941H76.8027V23.9382H67.5128V23.8183L76.3988 13.9673V9.51134H60.4041V14.0872H69.391V14.2071L60.4041 24.138V28.4941ZM52.9117 28.4941H58.7885V9.53132H52.9117V28.4941ZM39.2798 28.4941H45.1365V19.782C45.1365 15.8256 47.5397 14.0672 51.1951 14.5667H51.3162V9.57129C51.0133 9.4514 50.67 9.43142 50.1247 9.43142C47.8426 9.43142 46.3078 10.4705 44.9951 12.6885H44.8739V9.53132H39.2798V28.4941ZM28.5359 24.8574C25.9509 24.8574 24.3757 23.1989 24.0728 20.6412H37.8864C37.9268 16.5649 36.8362 13.3079 34.5541 11.2697C32.9385 9.79109 30.818 8.97183 28.1118 8.97183C22.336 8.97183 18.3373 13.3079 18.3373 18.9827C18.3373 24.6975 22.1542 29.0536 28.4956 29.0536C30.8988 29.0536 32.7971 28.4142 34.3724 27.3551C36.0486 26.2162 37.2603 24.5377 37.5834 22.8792H31.9691C31.4239 24.1181 30.2525 24.8574 28.5359 24.8574ZM28.233 13.1081C30.2929 13.1081 31.7066 14.6267 31.9489 16.8447H24.1132C24.5777 14.6067 25.8096 13.1081 28.233 13.1081ZM6.66445 28.4941H12.8038L19.4683 9.53132H13.5914L9.8553 21.7202H9.77452L6.03839 9.53132H0L6.66445 28.4941ZM52.9117 2.77747H58.7885V7.93278H52.9117V2.77747Z" fill="#61B989"/>
</svg>
