<svg width="267" height="53" viewBox="0 0 267 53" fill="none" xmlns="http://www.w3.org/2000/svg">
<path d="M77.9863 43.817H74.2898L61.4258 8.58447H65.179L76.1607 38.7026L87.0971 8.58447H90.8446L77.9863 43.817Z" fill="#D7F781"/>
<path d="M99.9045 19.5466C101.518 19.5362 103.115 19.8653 104.593 20.5127C106.024 21.1405 107.323 22.0353 108.42 23.1494C109.514 24.2685 110.396 25.5779 111.022 27.0137C111.668 28.4933 111.997 30.0925 111.986 31.7075C111.988 32.2711 111.917 32.8326 111.776 33.3782H91.7291C92.0494 35.3209 93.0554 37.0835 94.5638 38.3449C95.2957 38.9589 96.123 39.4485 97.013 39.794C97.9431 40.1499 98.9316 40.3272 99.9271 40.3168C101.061 40.3195 102.184 40.0994 103.232 39.6689C104.276 39.2442 105.225 38.6143 106.022 37.8164L108.516 40.3168C107.385 41.4078 106.063 42.2805 104.616 42.891C102.03 43.969 99.1519 44.116 96.4705 43.307C93.789 42.498 91.4699 40.7829 89.9076 38.4535C88.3454 36.124 87.6364 33.3241 87.9013 30.5298C88.1662 27.7356 89.3886 25.1195 91.3606 23.1267C92.4706 22.0206 93.7785 21.1338 95.2158 20.5127C96.6955 19.8701 98.2918 19.5412 99.9045 19.5466ZM99.9045 23.0471C98.9174 23.0428 97.9377 23.218 97.013 23.5643C96.1121 23.9012 95.2758 24.3915 94.5411 25.0133C93.8131 25.6353 93.1892 26.3701 92.6929 27.1898C92.1926 28.0128 91.8647 28.9293 91.7291 29.8834H108.074C107.905 28.9337 107.569 28.0216 107.082 27.1898C106.605 26.3648 105.989 25.6285 105.262 25.0133C104.527 24.3915 103.691 23.9012 102.79 23.5643C101.867 23.2182 100.89 23.043 99.9045 23.0471Z" fill="#D7F781"/>
<path d="M127.186 19.5464C128.815 19.5316 130.429 19.8567 131.925 20.5011C133.359 21.1185 134.665 21.9993 135.775 23.098C135.395 23.5129 134.959 23.9561 134.477 24.4278C133.995 24.8995 133.592 25.2745 133.28 25.5643C132.491 24.7688 131.553 24.1373 130.519 23.7061C129.462 23.2714 128.329 23.0512 127.186 23.0583C126.04 23.0496 124.905 23.2799 123.852 23.7345C121.791 24.6213 120.151 26.2698 119.271 28.3375C118.82 29.3972 118.591 30.5382 118.597 31.6902V43.8284H115.11V19.5464H118.597V23.8254C119.583 22.5284 120.846 21.4684 122.293 20.7227C123.803 19.9341 125.483 19.5302 127.186 19.5464Z" fill="#D7F781"/>
<path d="M145.986 31.7074C145.975 32.8471 146.205 33.9762 146.661 35.0204C147.095 36.022 147.712 36.9335 148.48 37.7083C149.262 38.4882 150.181 39.1163 151.19 39.5609C152.262 40.039 153.419 40.2961 154.592 40.3167V43.8172C151.384 43.8241 148.304 42.5573 146.026 40.2939C144.905 39.1651 144.017 37.8255 143.414 36.352C142.811 34.8785 142.504 33.3001 142.511 31.7074V21.8423H136.841V18.3475H142.511V8.59033H146.003V18.3475H154.564V21.8423H145.986V31.7074Z" fill="#D7F781"/>
<path d="M159.389 16.4152C159.163 16.4203 158.939 16.3767 158.732 16.2875C158.524 16.1983 158.338 16.0655 158.187 15.8981C157.864 15.5608 157.689 15.109 157.699 14.6422C157.692 14.415 157.732 14.1889 157.816 13.9777C157.9 13.7666 158.026 13.575 158.187 13.4147C158.342 13.2537 158.529 13.1267 158.736 13.0416C158.943 12.9565 159.165 12.9152 159.389 12.9203C159.616 12.916 159.842 12.9576 160.054 13.0425C160.265 13.1274 160.457 13.254 160.619 13.4147C160.786 13.5719 160.918 13.7623 161.006 13.9737C161.095 14.1851 161.139 14.4128 161.135 14.6422C161.137 14.8755 161.092 15.1068 161.004 15.3225C160.915 15.5382 160.784 15.7339 160.619 15.8981C160.46 16.0645 160.269 16.1964 160.058 16.2854C159.846 16.3744 159.618 16.4186 159.389 16.4152ZM161.186 43.817H157.699V19.5463H161.186V43.817Z" fill="#D7F781"/>
<path d="M199.506 26.2294C199.517 28.3525 199.132 30.459 198.372 32.4405C197.624 34.3934 196.531 36.1951 195.146 37.7595L199.937 42.5614L197.436 45.0674L192.595 40.1633C191.086 41.3333 189.397 42.2489 187.594 42.8739C183.506 44.2699 179.05 44.1121 175.07 42.4307C170.871 40.6532 167.529 37.3034 165.755 33.094C164.842 30.9211 164.372 28.5872 164.372 26.2294C164.372 23.8716 164.842 21.5376 165.755 19.3647C166.641 17.2754 167.913 15.3725 169.503 13.7559C171.097 12.1453 172.988 10.86 175.07 9.97127C177.239 9.05977 179.567 8.59033 181.919 8.59033C184.271 8.59033 186.599 9.05977 188.768 9.97127C192.987 11.7682 196.346 15.1356 198.139 19.3647C199.06 21.5348 199.525 23.8714 199.506 26.2294ZM181.93 40.3167C183.397 40.3224 184.855 40.0941 186.25 39.6405C187.616 39.2012 188.889 38.5113 190.004 37.6061L183.365 30.9233L185.814 28.474L192.583 35.2591C193.664 34.0276 194.519 32.6134 195.106 31.0824C195.71 29.536 196.02 27.89 196.019 26.2294C196.027 24.3349 195.64 22.4595 194.885 20.7229C193.457 17.3366 190.768 14.6417 187.39 13.2104C185.657 12.4532 183.786 12.0661 181.896 12.0739C180.015 12.0644 178.153 12.4516 176.431 13.2104C173.068 14.6565 170.391 17.3476 168.959 20.7229C168.203 22.4595 167.817 24.3349 167.825 26.2294C167.815 28.1149 168.202 29.9813 168.959 31.7075C169.681 33.3777 170.706 34.8997 171.98 36.1968C173.274 37.5131 174.819 38.556 176.522 39.2636C178.225 39.9713 180.053 40.3294 181.896 40.3167H181.93Z" fill="#D7F781"/>
<path d="M215.125 43.8171C213.505 43.8256 211.901 43.4966 210.414 42.851C208.976 42.2338 207.667 41.3487 206.559 40.2427C205.46 39.1329 204.586 37.8208 203.985 36.3784C203.353 34.8851 203.033 33.2781 203.043 31.6562V19.5464H206.536V31.6562C206.533 32.7877 206.763 33.9076 207.211 34.9464C207.651 35.9667 208.267 36.9015 209.03 37.7082C209.802 38.5133 210.722 39.1599 211.74 39.6119C212.81 40.0895 213.971 40.3298 215.142 40.3165C216.278 40.3201 217.403 40.09 218.447 39.6403C219.479 39.2088 220.417 38.5795 221.208 37.7877C221.996 36.9972 222.632 36.0689 223.085 35.0487C223.557 33.9749 223.795 32.8124 223.782 31.6391V19.5464H227.275V43.8171H223.782V39.5664C222.78 40.8841 221.49 41.955 220.012 42.6976C218.495 43.4532 216.82 43.8369 215.125 43.8171Z" fill="#D7F781"/>
<path d="M254.59 19.5464V43.817H251.103V39.5664C250.097 40.8831 248.806 41.9537 247.328 42.6976C245.817 43.4577 244.148 43.8473 242.457 43.8341C240.068 43.8304 237.732 43.1176 235.746 41.7856C233.76 40.4537 232.211 38.5621 231.295 36.3494C230.38 34.1367 230.138 31.7018 230.601 29.3517C231.064 27.0016 232.211 24.8415 233.897 23.1435C235.005 22.038 236.311 21.1513 237.746 20.5295C239.233 19.8839 240.837 19.5549 242.457 19.5634C244.148 19.5503 245.817 19.9398 247.328 20.7C248.806 21.4438 250.097 22.5144 251.103 23.8311V19.5521L254.59 19.5464ZM242.44 40.3165C243.595 40.3235 244.74 40.0934 245.802 39.6403C247.877 38.7727 249.53 37.1242 250.406 35.0487C250.861 33.9942 251.093 32.8563 251.086 31.7073C251.091 30.5511 250.86 29.4061 250.406 28.3432C249.979 27.3076 249.353 26.3665 248.563 25.5738C247.773 24.781 246.835 24.1522 245.802 23.7231C244.74 23.27 243.595 23.0399 242.44 23.0469C241.296 23.0377 240.163 23.268 239.112 23.7231C237.043 24.6078 235.398 26.2646 234.526 28.3432C234.076 29.4071 233.846 30.5517 233.851 31.7073C233.845 32.8557 234.075 33.993 234.526 35.0487C234.965 36.0712 235.594 37.0007 236.38 37.7877C237.163 38.5764 238.091 39.2056 239.112 39.6403C240.163 40.0954 241.296 40.3257 242.44 40.3165Z" fill="#D7F781"/>
<path d="M261.206 43.817H257.714V8.58447H261.206V43.817Z" fill="#D7F781"/>
<path d="M26.8705 0C19.9096 0.00570566 13.2355 2.77986 8.3134 7.7134C3.39132 12.6469 0.623612 19.3366 0.61792 26.3137H11.3654C11.3654 24.2728 11.7665 22.2519 12.5457 20.3663C13.3249 18.4808 14.467 16.7676 15.9067 15.3244C17.3465 13.8813 19.0558 12.7365 20.9369 11.9555C22.8181 11.1745 24.8343 10.7725 26.8705 10.7725C28.9066 10.7725 30.9228 11.1745 32.804 11.9555C34.6852 12.7365 36.3944 13.8813 37.8342 15.3244C39.274 16.7676 40.4161 18.4808 41.1953 20.3663C41.9745 22.2519 42.3755 24.2728 42.3755 26.3137H53.123C53.1154 19.3372 50.3471 12.6486 45.4254 7.7155C40.5038 2.78237 33.8307 0.00760381 26.8705 0Z" fill="#D7F781"/>
<path d="M0.618164 26.2778C7.5772 26.2854 14.2492 29.0592 19.1706 33.9908C24.0921 38.9224 26.8612 45.6091 26.8707 52.5843H16.1232C16.1175 48.465 14.4819 44.5161 11.5752 41.6039C8.66844 38.6918 4.72796 37.0542 0.618164 37.0504V26.2778Z" fill="#D7F781"/>
<path d="M53.1234 26.2778V37.0504C49.0136 37.0542 45.0731 38.6918 42.1664 41.6039C39.2597 44.5161 37.624 48.465 37.6183 52.5843H26.8708C26.8784 45.6085 29.647 38.9207 34.5689 33.9887C39.4907 29.0567 46.1638 26.2835 53.1234 26.2778Z" fill="#D7F781"/>
<path d="M264.814 8.48632C265.014 8.48548 265.213 8.51066 265.407 8.56122C265.591 8.60994 265.768 8.68242 265.933 8.77683C266.257 8.96126 266.525 9.22937 266.71 9.55304C266.804 9.71846 266.876 9.89547 266.925 10.0796C266.976 10.273 267.001 10.4721 267 10.672C267.001 10.8742 266.975 11.0758 266.923 11.2712C266.872 11.4586 266.796 11.6381 266.696 11.8045C266.602 11.9704 266.487 12.1231 266.353 12.2584C266.085 12.5311 265.748 12.7257 265.377 12.8213C265.183 12.8744 264.982 12.9011 264.78 12.9007C264.387 12.9023 264.001 12.8005 263.659 12.6057C263.334 12.4172 263.064 12.1463 262.876 11.8204C262.778 11.6552 262.702 11.4783 262.649 11.2938C262.599 11.0997 262.573 10.8998 262.574 10.6992C262.573 10.4977 262.599 10.2969 262.651 10.1023C262.704 9.91693 262.78 9.73916 262.878 9.57347C262.971 9.4073 263.087 9.25459 263.221 9.11955C263.357 8.98604 263.509 8.87083 263.675 8.77683C263.842 8.67851 264.022 8.60222 264.208 8.54987C264.407 8.50176 264.61 8.48039 264.814 8.48632ZM264.814 8.97429C264.661 8.9736 264.508 8.99344 264.36 9.0333C264.217 9.0701 264.079 9.12581 263.95 9.19898C263.825 9.27084 263.711 9.35858 263.609 9.45999C263.403 9.67056 263.255 9.93211 263.183 10.218C263.143 10.3723 263.123 10.5309 263.123 10.6901C263.123 10.8485 263.142 11.0062 263.18 11.1599C263.217 11.3048 263.272 11.4443 263.344 11.5753C263.413 11.7008 263.498 11.8168 263.598 11.9203C263.697 12.0215 263.809 12.1093 263.931 12.1813C264.057 12.2547 264.192 12.3112 264.333 12.3492C264.481 12.3886 264.634 12.4084 264.787 12.4082C264.941 12.4084 265.093 12.3878 265.241 12.347C265.385 12.3095 265.522 12.2523 265.65 12.1767C265.774 12.1037 265.888 12.0136 265.988 11.9089C266.09 11.8037 266.178 11.6854 266.249 11.5571C266.322 11.4251 266.378 11.2839 266.414 11.1372C266.453 10.9814 266.472 10.8213 266.471 10.6606C266.472 10.5039 266.454 10.3477 266.417 10.1953C266.38 10.0536 266.326 9.91713 266.256 9.78909C266.187 9.66529 266.101 9.55151 266.001 9.45091C265.903 9.34985 265.792 9.26278 265.67 9.19218C265.543 9.1205 265.407 9.0663 265.266 9.03103C265.117 8.99242 264.964 8.97335 264.81 8.97429H264.814ZM263.943 11.7296V9.66425H265.014C265.125 9.66336 265.235 9.67787 265.341 9.70738C265.429 9.73267 265.512 9.77509 265.584 9.83221C265.649 9.88592 265.702 9.95434 265.736 10.0319C265.801 10.1921 265.801 10.3711 265.736 10.5313C265.709 10.5995 265.668 10.6613 265.616 10.7128C265.562 10.7659 265.499 10.8076 265.429 10.8354C265.353 10.8655 265.271 10.8824 265.189 10.8853C265.281 10.8929 265.368 10.9273 265.441 10.9842C265.514 11.041 265.568 11.1179 265.597 11.2053L265.824 11.7296H265.159L264.932 11.2258C264.916 11.1907 264.898 11.1566 264.878 11.1236C264.863 11.1009 264.846 11.0803 264.826 11.0623C264.809 11.0492 264.79 11.0399 264.769 11.0351C264.744 11.0327 264.719 11.0327 264.694 11.0351H264.544V11.7364L263.943 11.7296ZM264.901 10.5721C264.974 10.5765 265.047 10.5583 265.109 10.5199C265.132 10.5014 265.151 10.478 265.163 10.4515C265.176 10.425 265.182 10.3961 265.182 10.3667C265.182 10.3374 265.176 10.3084 265.163 10.2819C265.151 10.2554 265.132 10.232 265.109 10.2135C265.047 10.1759 264.974 10.1585 264.901 10.1636H264.544V10.5721H264.901Z" fill="#D7F781"/>
</svg>
