<svg width="160" height="32" viewBox="0 0 160 32" fill="none" xmlns="http://www.w3.org/2000/svg">
<path d="M46.4706 26.3184H44.2503L36.5237 5.15625H38.778L45.3741 23.2464L51.9429 5.15625H54.1938L46.4706 26.3184Z" fill="#1C4B24"/>
<path d="M59.6356 11.7403C60.6045 11.7341 61.5639 11.9317 62.4517 12.3206C63.3112 12.6977 64.0912 13.2351 64.7503 13.9043C65.4076 14.5765 65.9373 15.363 66.3134 16.2253C66.7013 17.1141 66.8985 18.0746 66.8923 19.0447C66.8932 19.3832 66.8509 19.7204 66.7663 20.0481H54.7251C54.9175 21.215 55.5217 22.2737 56.4278 23.0313C56.8673 23.4001 57.3643 23.6942 57.8988 23.9017C58.4575 24.1155 59.0513 24.222 59.6492 24.2157C60.33 24.2174 61.0044 24.0852 61.6345 23.8266C62.2614 23.5715 62.8311 23.1931 63.3099 22.7139L64.8082 24.2157C64.1287 24.8711 63.3345 25.3952 62.4654 25.7619C60.9124 26.4094 59.1836 26.4977 57.573 26.0118C55.9624 25.5258 54.5694 24.4957 53.6311 23.0965C52.6927 21.6974 52.2668 20.0156 52.426 18.3373C52.5851 16.6589 53.3193 15.0876 54.5037 13.8907C55.1705 13.2263 55.956 12.6937 56.8194 12.3206C57.7081 11.9346 58.667 11.7371 59.6356 11.7403ZM59.6356 13.8429C59.0427 13.8402 58.4542 13.9455 57.8988 14.1535C57.3577 14.3559 56.8554 14.6503 56.4141 15.0239C55.9769 15.3974 55.6021 15.8388 55.304 16.3311C55.0035 16.8255 54.8066 17.3759 54.7251 17.949H64.5426C64.4412 17.3786 64.2394 16.8308 63.9467 16.3311C63.66 15.8356 63.2902 15.3934 62.8536 15.0239C62.4123 14.6503 61.91 14.3559 61.3689 14.1535C60.8146 13.9456 60.2273 13.8404 59.6356 13.8429Z" fill="#1C4B24"/>
<path d="M76.0219 11.7404C77.0002 11.7315 77.9697 11.9268 78.8687 12.3138C79.7298 12.6846 80.514 13.2137 81.1809 13.8737C80.9528 14.1228 80.6906 14.3891 80.4011 14.6724C80.1117 14.9557 79.8699 15.1809 79.6826 15.355C79.2085 14.8772 78.6449 14.4979 78.0242 14.2389C77.389 13.9778 76.7084 13.8455 76.0219 13.8498C75.3336 13.8446 74.6517 13.9829 74.0195 14.2559C72.7818 14.7886 71.7964 15.7787 71.2681 17.0207C70.9972 17.6572 70.8593 18.3425 70.8628 19.0345V26.3252H68.7686V11.7404H70.8628V14.3106C71.4554 13.5315 72.2139 12.8948 73.0831 12.4469C73.99 11.9733 74.9993 11.7306 76.0219 11.7404Z" fill="#1C4B24"/>
<path d="M87.3138 19.0448C87.3073 19.7293 87.4454 20.4075 87.7191 21.0347C87.9801 21.6363 88.3508 22.1838 88.8122 22.6491C89.2816 23.1175 89.8335 23.4948 90.4399 23.7619C91.0837 24.0491 91.7785 24.2034 92.4831 24.2158V26.3184C90.5563 26.3225 88.7062 25.5616 87.3377 24.2022C86.6644 23.5241 86.1313 22.7195 85.769 21.8345C85.4067 20.9494 85.2223 20.0014 85.2264 19.0448V13.1194H81.821V11.0202H85.2264V5.15968H87.324V11.0202H92.4661V13.1194H87.3138V19.0448Z" fill="#1C4B24"/>
<path d="M95.3641 9.85968C95.2286 9.86273 95.094 9.83657 94.9695 9.78299C94.8449 9.7294 94.7333 9.64963 94.6422 9.54908C94.4487 9.34648 94.3434 9.07516 94.3493 8.79475C94.3452 8.65831 94.369 8.52247 94.4194 8.39565C94.4698 8.26882 94.5456 8.15373 94.6422 8.05749C94.7356 7.96078 94.848 7.88447 94.9722 7.83337C95.0964 7.78227 95.2299 7.75747 95.3641 7.76054C95.5009 7.75794 95.6367 7.78289 95.7636 7.8339C95.8906 7.8849 96.006 7.96094 96.1031 8.05749C96.2032 8.15187 96.2826 8.26624 96.3359 8.39322C96.3893 8.5202 96.4155 8.65698 96.413 8.79475C96.4142 8.93486 96.3875 9.07381 96.3343 9.20338C96.281 9.33295 96.2024 9.4505 96.1031 9.54908C96.0079 9.64906 95.8931 9.72826 95.766 9.78171C95.6388 9.83516 95.502 9.86171 95.3641 9.85968ZM96.4436 26.3183H94.3493V11.7404H96.4436V26.3183Z" fill="#1C4B24"/>
<path d="M119.46 15.7544C119.467 17.0296 119.236 18.2948 118.779 19.485C118.33 20.658 117.673 21.7402 116.841 22.6798L119.719 25.564L118.217 27.0693L115.309 24.1236C114.403 24.8264 113.388 25.3763 112.305 25.7517C109.85 26.5902 107.173 26.4955 104.783 25.4855C102.261 24.4179 100.253 22.4059 99.1882 19.8776C98.6397 18.5724 98.3572 17.1705 98.3572 15.7544C98.3572 14.3382 98.6397 12.9363 99.1882 11.6312C99.7203 10.3762 100.484 9.23326 101.439 8.26229C102.397 7.29487 103.532 6.52286 104.783 5.98907C106.086 5.44159 107.484 5.15962 108.897 5.15962C110.309 5.15962 111.708 5.44159 113.01 5.98907C115.545 7.06841 117.562 9.09095 118.639 11.6312C119.192 12.9346 119.471 14.3381 119.46 15.7544ZM108.904 24.2158C109.784 24.2192 110.66 24.0821 111.498 23.8096C112.319 23.5457 113.083 23.1314 113.753 22.5877L109.765 18.5737L111.236 17.1026L115.302 21.178C115.951 20.4383 116.465 19.5888 116.817 18.6693C117.18 17.7404 117.366 16.7518 117.366 15.7544C117.37 14.6164 117.138 13.49 116.685 12.4469C115.827 10.413 114.212 8.7943 112.183 7.93462C111.142 7.47982 110.018 7.24733 108.883 7.25197C107.753 7.24628 106.635 7.47887 105.6 7.93462C103.58 8.80323 101.973 10.4196 101.112 12.4469C100.658 13.49 100.426 14.6164 100.431 15.7544C100.425 16.8869 100.657 18.0079 101.112 19.0447C101.546 20.048 102.162 20.9621 102.927 21.7412C103.704 22.5318 104.632 23.1582 105.655 23.5833C106.678 24.0083 107.776 24.2234 108.883 24.2158H108.904Z" fill="#1C4B24"/>
<path d="M128.842 26.3183C127.869 26.3235 126.905 26.1259 126.012 25.7381C125.148 25.3674 124.362 24.8358 123.696 24.1714C123.037 23.5049 122.512 22.7167 122.15 21.8504C121.771 20.9534 121.579 19.9882 121.585 19.014V11.7404H123.683V19.014C123.681 19.6936 123.819 20.3663 124.088 20.9903C124.353 21.6031 124.723 22.1646 125.181 22.6491C125.644 23.1327 126.197 23.5211 126.809 23.7925C127.452 24.0794 128.149 24.2238 128.852 24.2158C129.535 24.2179 130.21 24.0797 130.837 23.8096C131.457 23.5504 132.02 23.1725 132.496 22.6969C132.968 22.2221 133.351 21.6645 133.623 21.0517C133.906 20.4067 134.049 19.7085 134.042 19.0038V11.7404H136.139V26.3183H134.042V23.7652C133.44 24.5567 132.665 25.1999 131.777 25.6459C130.866 26.0998 129.86 26.3303 128.842 26.3183Z" fill="#1C4B24"/>
<path d="M152.546 11.7404V26.3183H150.452V23.7652C149.848 24.5561 149.072 25.1992 148.184 25.6459C147.277 26.1025 146.274 26.3365 145.259 26.3286C143.823 26.3263 142.421 25.8982 141.227 25.0982C140.034 24.2981 139.104 23.162 138.554 21.833C138.004 20.5039 137.859 19.0414 138.137 17.6299C138.415 16.2183 139.104 14.9208 140.117 13.901C140.782 13.237 141.567 12.7043 142.429 12.3309C143.322 11.9431 144.286 11.7455 145.259 11.7506C146.274 11.7427 147.277 11.9767 148.184 12.4333C149.072 12.88 149.848 13.5231 150.452 14.314V11.7438L152.546 11.7404ZM145.249 24.2158C145.942 24.22 146.629 24.0818 147.268 23.8096C148.514 23.2885 149.507 22.2983 150.033 21.0517C150.306 20.4183 150.446 19.7349 150.442 19.0447C150.445 18.3503 150.306 17.6625 150.033 17.0241C149.777 16.4021 149.401 15.8368 148.926 15.3607C148.452 14.8845 147.888 14.5068 147.268 14.2491C146.629 13.977 145.942 13.8387 145.249 13.8429C144.561 13.8374 143.88 13.9758 143.25 14.2491C142.007 14.7805 141.019 15.7756 140.495 17.0241C140.224 17.6631 140.087 18.3506 140.089 19.0447C140.086 19.7345 140.224 20.4176 140.495 21.0517C140.759 21.6659 141.136 22.2242 141.608 22.6969C142.078 23.1706 142.636 23.5485 143.25 23.8096C143.88 24.083 144.561 24.2213 145.249 24.2158Z" fill="#1C4B24"/>
<path d="M156.52 26.3184H154.422V5.15625H156.52V26.3184Z" fill="#1C4B24"/>
<path d="M15.7684 6.86646e-05C11.5874 0.00349572 7.57862 1.66977 4.62222 4.63305C1.66582 7.59634 0.00341909 11.6144 0 15.8051H6.45539C6.45539 14.5793 6.69627 13.3655 7.16429 12.2329C7.63231 11.1004 8.3183 10.0713 9.18309 9.20455C10.0479 8.33774 11.0745 7.65016 12.2044 7.18105C13.3343 6.71194 14.5454 6.47049 15.7684 6.47049C16.9914 6.47049 18.2024 6.71194 19.3323 7.18105C20.4622 7.65016 21.4888 8.33774 22.3536 9.20455C23.2184 10.0713 23.9044 11.1004 24.3724 12.2329C24.8404 13.3655 25.0813 14.5793 25.0813 15.8051H31.5367C31.5322 11.6148 29.8694 7.59735 26.9132 4.63431C23.9571 1.67128 19.949 0.00463582 15.7684 6.86646e-05Z" fill="#1C4B24"/>
<path d="M0.00012207 15.7835C4.18001 15.7881 8.18745 17.4541 11.1435 20.4163C14.0995 23.3784 15.7628 27.3947 15.7685 31.5843H9.31309C9.30967 29.11 8.32725 26.7382 6.58135 24.989C4.83545 23.2398 2.46863 22.2562 0.00012207 22.254V15.7835Z" fill="#1C4B24"/>
<path d="M31.5369 15.7835V22.254C29.0684 22.2562 26.7016 23.2398 24.9557 24.989C23.2098 26.7382 22.2274 29.11 22.2239 31.5843H15.7686C15.7731 27.3943 17.436 23.3773 20.3923 20.415C23.3486 17.4526 27.3567 15.787 31.5369 15.7835Z" fill="#1C4B24"/>
<path d="M158.687 5.09729C158.807 5.09679 158.927 5.11191 159.043 5.14228C159.154 5.17154 159.26 5.21507 159.359 5.27178C159.554 5.38256 159.715 5.5436 159.826 5.73801C159.882 5.83737 159.926 5.94368 159.955 6.05428C159.985 6.17043 160.001 6.29003 160 6.41008C160.001 6.53158 159.985 6.65261 159.954 6.76998C159.923 6.88258 159.878 6.9904 159.817 7.09034C159.761 7.18997 159.692 7.28166 159.612 7.36298C159.45 7.52676 159.248 7.64362 159.025 7.70106C158.909 7.73293 158.788 7.74898 158.667 7.74877C158.431 7.74969 158.199 7.68858 157.993 7.57156C157.798 7.45833 157.636 7.29565 157.523 7.09988C157.464 7.00068 157.419 6.8944 157.387 6.78361C157.356 6.667 157.341 6.54694 157.342 6.42644C157.341 6.3054 157.357 6.18481 157.388 6.06791C157.42 5.95657 157.465 5.8498 157.524 5.75028C157.58 5.65047 157.65 5.55875 157.73 5.47763C157.812 5.39745 157.904 5.32824 158.003 5.27178C158.103 5.21273 158.211 5.16691 158.323 5.13546C158.442 5.10657 158.565 5.09373 158.687 5.09729ZM158.687 5.39039C158.595 5.38997 158.504 5.40189 158.415 5.42583C158.328 5.44793 158.245 5.4814 158.168 5.52535C158.093 5.56851 158.025 5.62121 157.963 5.68212C157.839 5.80859 157.751 5.96569 157.707 6.13744C157.683 6.23007 157.671 6.32535 157.672 6.42099C157.672 6.51608 157.683 6.61084 157.706 6.70318C157.728 6.79016 157.761 6.874 157.804 6.95265C157.846 7.02805 157.897 7.09771 157.957 7.15986C158.016 7.22069 158.084 7.2734 158.157 7.31663C158.233 7.36075 158.314 7.39468 158.398 7.41751C158.487 7.44117 158.579 7.45308 158.671 7.45295C158.763 7.45305 158.855 7.44067 158.944 7.41615C159.03 7.39368 159.112 7.35927 159.189 7.3139C159.264 7.27006 159.332 7.21591 159.392 7.15304C159.453 7.08982 159.506 7.01877 159.549 6.94174C159.593 6.86246 159.627 6.77765 159.648 6.68955C159.672 6.59594 159.683 6.49975 159.682 6.40327C159.683 6.30913 159.672 6.21529 159.65 6.1238C159.628 6.03869 159.595 5.95669 159.553 5.87979C159.512 5.80543 159.46 5.73709 159.4 5.67666C159.341 5.61596 159.274 5.56367 159.201 5.52126C159.125 5.47821 159.043 5.44565 158.959 5.42447C158.869 5.40128 158.777 5.38982 158.685 5.39039H158.687ZM158.164 7.04535V5.80481H158.807C158.874 5.80427 158.94 5.81299 159.004 5.83071C159.057 5.8459 159.106 5.87138 159.149 5.90569C159.189 5.93795 159.22 5.97904 159.241 6.02565C159.28 6.12182 159.28 6.22939 159.241 6.32556C159.225 6.36653 159.2 6.40367 159.169 6.43462C159.137 6.46648 159.099 6.49152 159.057 6.50823C159.011 6.52631 158.962 6.53646 158.912 6.53823C158.967 6.54279 159.02 6.56343 159.064 6.59759C159.107 6.63175 159.14 6.67794 159.158 6.73044L159.294 7.04535H158.895L158.758 6.74271C158.749 6.72163 158.738 6.70115 158.725 6.68137C158.717 6.66771 158.706 6.65532 158.694 6.64456C158.684 6.63668 158.672 6.6311 158.66 6.6282C158.645 6.62673 158.63 6.62673 158.615 6.6282H158.525V7.04944L158.164 7.04535ZM158.739 6.3501C158.783 6.35274 158.827 6.34179 158.865 6.31875C158.878 6.30763 158.889 6.2936 158.897 6.27768C158.904 6.26176 158.908 6.24435 158.908 6.22673C158.908 6.2091 158.904 6.19169 158.897 6.17578C158.889 6.15986 158.878 6.14583 158.865 6.13471C158.827 6.11214 158.783 6.10167 158.739 6.10472H158.525V6.3501H158.739Z" fill="#1C4B24"/>
</svg>
